<svg fill="none" height="24" viewBox="0 0 24 24" width="24" xmlns="http://www.w3.org/2000/svg"><g fill="#212121"><path d="m11.75 7.5c-.4142 0-.75.33579-.75.75s.3358.75.75.75c1.322 0 2.7118.75866 3.4094 1.7557.2375.3394.7051.4221 1.0445.1846s.422-.7051.1846-1.04447c-.9751-1.39363-2.8213-2.39583-4.6385-2.39583z"/><path d="m9.5 4.5c0-1.38071 1.1193-2.5 2.5-2.5s2.5 1.11929 2.5 2.5v.87957c3.3398 1.05361 5.75 4.18125 5.75 7.87043 0 .4142-.3358.75-.75.75h-15c-.41421 0-.75-.3358-.75-.75 0-3.67865 2.42219-6.79304 5.75-7.85794zm3.5 0c0-.55228-.4477-1-1-1s-1 .44772-1 1v.56264c.3348-.04134.6757-.06262 1.0214-.06262.3313 0 .6578.01952.9786.05748zm-7.70847 8h13.41757c-.3709-3.37637-3.2166-5.99998-6.6877-5.99998-3.47584 0-6.35416 2.62795-6.72987 5.99998z"/><path d="m4 15c-1.10457 0-2 .8954-2 2s.89543 2 2 2h16c1.1046 0 2-.8954 2-2s-.8954-2-2-2zm-.5 2c0-.2761.22386-.5.5-.5h16c.2761 0 .5.2239.5.5s-.2239.5-.5.5h-16c-.27614 0-.5-.2239-.5-.5z"/></g></svg>